<?xml version="1.0" standalone="no"?>
<!DOCTYPE svg PUBLIC "-//W3C//DTD SVG 20010904//EN"
 "http://www.w3.org/TR/2001/REC-SVG-20010904/DTD/svg10.dtd">
<svg version="1.0" xmlns="http://www.w3.org/2000/svg"
 width="700.000000pt" height="700.000000pt" viewBox="0 0 700.000000 700.000000"
 preserveAspectRatio="xMidYMid meet">
<metadata>
Created by potrace 1.14, written by Peter Selinger 2001-2017
</metadata>
<g transform="translate(0.000000,700.000000) scale(0.100000,-0.100000)"
fill="#000000" stroke="none">
<path d="M2938 6996 c-1 -2 -40 -7 -85 -10 -46 -4 -91 -9 -102 -11 -10 -2 -36
-6 -57 -9 -22 -4 -73 -13 -114 -22 -41 -9 -84 -18 -96 -20 -44 -8 -233 -67
-309 -96 -297 -113 -602 -289 -835 -483 -141 -118 -377 -357 -475 -482 -151
-191 -267 -373 -387 -603 -95 -181 -151 -318 -231 -565 -76 -234 -89 -291
-141 -620 -36 -227 -38 -250 -41 -530 -2 -268 3 -356 31 -555 2 -19 7 -53 9
-74 11 -83 47 -274 66 -346 11 -41 22 -83 24 -93 16 -71 112 -359 154 -466 29
-72 135 -287 190 -386 97 -174 279 -445 340 -506 9 -9 36 -40 60 -70 78 -95
332 -341 443 -429 229 -182 562 -368 813 -455 28 -9 59 -21 70 -25 23 -10 162
-51 188 -56 10 -2 26 -5 35 -8 9 -3 28 -7 42 -10 14 -3 36 -7 50 -10 70 -15
86 -18 180 -31 146 -21 477 -27 635 -11 109 11 99 11 215 0 115 -11 416 -12
520 -1 273 27 505 83 770 188 100 39 335 157 397 199 24 17 46 30 49 30 7 0
154 101 229 158 144 109 370 324 491 467 247 292 458 644 599 1000 63 158 154
456 179 585 3 14 14 70 25 125 45 229 65 440 65 715 1 254 -8 387 -40 600 -20
137 -23 153 -50 275 -14 61 -27 119 -29 131 -33 147 -138 442 -229 641 -56
122 -79 166 -142 276 -19 32 -34 60 -34 63 0 3 -9 17 -19 32 -10 15 -39 59
-64 97 -59 93 -177 251 -257 345 -75 88 -261 277 -340 345 -97 83 -104 89
-160 130 -30 22 -61 45 -67 52 -53 49 -421 258 -543 307 -196 79 -401 146
-493 161 -18 3 -66 12 -107 20 -94 18 -126 23 -220 32 -105 10 -438 10 -540
-1 -102 -11 -120 -11 -185 -2 -50 7 -470 17 -477 12z"/>
</g>
</svg>
